# xmcd
#
# Track frame offsets:
#	150
#	14584
#	31920
#	47594
#	63857
#	85442
#	100968
#	121066
#	136143
#	151519
#	168388
#	185036
#	203563
#	215935
#	233035
#
# Disc length: 3304 seconds
#
# Revision: 1
# Processed by: cddbd v1.5.1PL2 Copyright (c) Steve Scherf et al.
# Submitted via: audiograbber 1.83.01
#
DISCID=c40ce60f
DTITLE=Sandra Mooy - What If We Fly ...
DYEAR=2004
DGENRE=Country
TTITLE0=He Will Be Mine
TTITLE1=What If We Fly
TTITLE2=And Still
TTITLE3=Wild Angels
TTITLE4=What If I Said
TTITLE5=You've Got To Talk To Me
TTITLE6=All Smiles Tonight
TTITLE7=Closer
TTITLE8=Sweet Music Man
TTITLE9=Missing
TTITLE10=Like We Never Had A Broken Heart
TTITLE11=Commitment
TTITLE12=Blue Eyes Crying In The Rain
TTITLE13=It Was
TTITLE14=Hurt
EXTD=
EXTT0=
EXTT1=
EXTT2=
EXTT3=
EXTT4=
EXTT5=
EXTT6=
EXTT7=
EXTT8=
EXTT9=
EXTT10=
EXTT11=
EXTT12=
EXTT13=
EXTT14=
PLAYORDER=
